<?xml version="1.0" encoding="utf-8"?>
<!-- Generator: Adobe Illustrator 26.5.0, SVG Export Plug-In . SVG Version: 6.00 Build 0)  -->
<svg version="1.1" id="Layer_1" xmlns="http://www.w3.org/2000/svg" xmlns:xlink="http://www.w3.org/1999/xlink" x="0px" y="0px"
	 viewBox="0 0 181.54 181.54" style="enable-background:new 0 0 181.54 181.54;" xml:space="preserve">
<style type="text/css">
	.st0{fill:#FFFFFF;}
	.st1{fill:#008BBF;}
</style>
<g>
	<g>
		<g>
			<path class="st0" d="M29.96,142.1l122.49-69.49c0.33-0.16,0.54-0.5,0.54-0.87V40.31c0-0.54-0.44-0.98-0.98-0.98H66.11
				c-0.4,0-0.76,0.24-0.91,0.62L28.62,140.87C28.29,141.7,29.16,142.5,29.96,142.1z"/>
			<path class="st0" d="M152.02,39.33H66.11c-0.4,0-0.76,0.24-0.91,0.62L28.62,140.87c-0.27,0.68,0.26,1.34,0.9,1.34
				c0.14,0,0.29-0.03,0.44-0.11l122.49-69.49c0.33-0.16,0.54-0.5,0.54-0.87V40.31C152.99,39.77,152.56,39.33,152.02,39.33
				L152.02,39.33z"/>
		</g>
		<path class="st1" d="M63.96,65.08l-35.32,75.73c-0.37,0.79,0.4,1.63,1.22,1.33l110.78-40.32c0.39-0.14,0.64-0.51,0.64-0.92V65.49
			c0-0.54-0.44-0.98-0.98-0.98H64.84C64.46,64.52,64.12,64.74,63.96,65.08z"/>
		<path class="st0" d="M69.11,70.65h-1.74v-4.18h-1.53v9.75h1.53v-4.18h1.74v4.18h1.56v-9.75h-1.56V70.65z M133.75,66.47h-1.53v9.75
			h1.53V66.47z M73.2,66.47l-1.56,9.75h1.41l0.27-1.77h1.88l0.27,1.77h1.55l-1.56-9.75H73.2z M73.51,73.13l0.74-4.93l0.74,4.93
			H73.51z M86.46,70.5l-0.56,2.15v-6.17h-1.37v9.75h1.58l1.28-4.47l0.63-2.4v6.87h1.38v-9.75h-1.69L86.46,70.5z M110.8,73.76
			l0.17-5.89h1.34v8.36h1.56v-9.75h-4.33l-0.25,7.37c-0.03,0.91-0.25,1-0.95,1v1.39h0.24C110.1,76.24,110.74,75.54,110.8,73.76z
			 M131.34,73.81v-1.27c0-1.56-0.75-2.41-2.28-2.41h-0.73v-3.67h-1.53v9.75h2.26C130.59,76.22,131.34,75.37,131.34,73.81z
			 M128.33,71.53h0.73c0.49,0,0.75,0.22,0.75,0.92v1.46c0,0.7-0.27,0.92-0.75,0.92h-0.73V71.53z M119.65,73.81v-1.27
			c0-1.56-0.75-2.41-2.29-2.41h-0.72v-3.67h-1.53v9.75h2.26C118.9,76.22,119.65,75.37,119.65,73.81z M116.64,71.53h0.72
			c0.49,0,0.75,0.22,0.75,0.92v1.46c0,0.7-0.26,0.92-0.75,0.92h-0.72V71.53z M122.27,72.04h1.74v4.18h1.56v-9.75h-1.56v4.18h-1.74
			v-4.18h-1.53v9.75h1.53V72.04z M82.81,66.47h-1.56v8.36h-1.74v-8.36h-1.53v9.75h4.01v1.31h1.49v-2.68h-0.67V66.47z M105.98,76.22
			h1.55l-1.56-9.75h-2.24l-1.56,9.75h1.41l0.26-1.77h1.88L105.98,76.22z M104.03,73.13l0.74-4.93l0.74,4.93H104.03z M139.17,67.86
			v-1.39h-4.18v9.75h4.18v-1.39h-2.65v-2.86h2.1v-1.39h-2.1v-2.72H139.17z M92.86,66.36c-1.5,0-2.33,0.89-2.33,2.45v5.07
			c0,1.56,0.82,2.45,2.33,2.45c1.51,0,2.33-0.89,2.33-2.45v-5.07C95.19,67.25,94.37,66.36,92.86,66.36z M93.66,73.98
			c0,0.7-0.31,0.96-0.79,0.96c-0.49,0-0.79-0.26-0.79-0.96v-5.27c0-0.7,0.31-0.96,0.79-0.96c0.49,0,0.79,0.27,0.79,0.96V73.98z
			 M97.87,72.04h1.74v4.18h1.56v-9.75h-1.56v4.18h-1.74v-4.18h-1.53v9.75h1.53V72.04z M119.37,79.57v-1.39h-4.18v9.76h4.18v-1.39
			h-2.65v-2.86h2.11v-1.39h-2.11v-2.72H119.37z M123.97,87.93h1.57l-2.13-5.41l2.13-4.35h-1.53l-2.01,4.25v-4.25h-1.53v9.76h1.53v-3
			l0.47-0.89L123.97,87.93z M129.47,87.93v-8.36h1.6v-1.39h-4.74v1.39h1.6v8.36H129.47z M136.59,85.52v-1.27
			c0-1.56-0.75-2.41-2.29-2.41h-0.72v-3.67h-1.53v9.76h2.26C135.84,87.93,136.59,87.08,136.59,85.52z M133.58,83.23h0.72
			c0.49,0,0.75,0.22,0.75,0.92v1.46c0,0.7-0.26,0.92-0.75,0.92h-0.72V83.23z M108.45,81.86v-1.27c0-1.56-0.75-2.41-2.28-2.41h-2.26
			v9.76h1.53v-3.66h0.73C107.7,84.27,108.45,83.42,108.45,81.86z M105.44,79.57h0.73c0.49,0,0.75,0.22,0.75,0.92v1.46
			c0,0.7-0.26,0.92-0.75,0.92h-0.73V79.57z M97.85,87.93h1.53v-8.36h1.74v8.36h1.56v-9.76h-4.84V87.93z M137.47,87.93H139v-9.76
			h-1.53V87.93z M111.72,78.06c-1.5,0-2.33,0.89-2.33,2.45v5.07c0,1.56,0.82,2.45,2.33,2.45c1.51,0,2.33-0.89,2.33-2.45v-5.07
			C114.05,78.96,113.22,78.06,111.72,78.06z M112.51,85.69c0,0.7-0.31,0.96-0.79,0.96c-0.49,0-0.8-0.27-0.8-0.96v-5.27
			c0-0.7,0.31-0.96,0.8-0.96c0.49,0,0.79,0.27,0.79,0.96V85.69z M136.06,93.91l-0.56,2.15v-6.17h-1.37v9.76h1.57l1.28-4.47l0.63-2.4
			v6.87H139v-9.76h-1.69L136.06,93.91z M113.4,89.77c-1.5,0-2.33,0.89-2.33,2.45v5.07c0,1.56,0.82,2.45,2.33,2.45
			c1.51,0,2.33-0.89,2.33-2.45v-5.07C115.73,90.66,114.91,89.77,113.4,89.77z M114.19,97.39c0,0.7-0.31,0.96-0.79,0.96
			c-0.49,0-0.79-0.26-0.79-0.96v-5.27c0-0.7,0.31-0.96,0.79-0.96c0.49,0,0.79,0.26,0.79,0.96V97.39z M107.85,89.88h-2.26v9.76h1.53
			v-3.67h0.73c1.53,0,2.28-0.85,2.28-2.41v-1.27C110.14,90.73,109.38,89.88,107.85,89.88z M108.6,93.66c0,0.7-0.26,0.92-0.75,0.92
			h-0.73v-3.3h0.73c0.49,0,0.75,0.22,0.75,0.92V93.66z M119.07,89.77c-1.5,0-2.29,0.89-2.29,2.45v5.07c0,1.56,0.78,2.45,2.29,2.45
			c1.51,0,2.29-0.89,2.29-2.45V96h-1.45v1.39c0,0.7-0.31,0.95-0.79,0.95c-0.49,0-0.79-0.25-0.79-0.95v-5.27
			c0-0.7,0.31-0.96,0.79-0.96c0.49,0,0.79,0.26,0.79,0.96v1.04h1.45v-0.95C121.36,90.66,120.58,89.77,119.07,89.77z M124.68,89.77
			c-1.5,0-2.28,0.89-2.28,2.45v5.07c0,1.56,0.78,2.45,2.28,2.45c1.51,0,2.29-0.89,2.29-2.45V96h-1.45v1.39
			c0,0.7-0.31,0.95-0.79,0.95c-0.49,0-0.79-0.25-0.79-0.95v-5.27c0-0.7,0.31-0.96,0.79-0.96c0.49,0,0.79,0.26,0.79,0.96v1.04h1.45
			v-0.95C126.97,90.66,126.19,89.77,124.68,89.77z M129.98,93.91l-0.56,2.15v-6.17h-1.37v9.76h1.57l1.28-4.47l0.63-2.4v6.87h1.38
			v-9.76h-1.69L129.98,93.91z"/>
	</g>
	<g>
		<path class="st1" d="M128.03,50.09h-0.93v-2.39h-2.4v2.39h-0.93v-5.38h0.93v2.24h2.4v-2.24h0.93V50.09z"/>
		<path class="st1" d="M132.14,48.84h-2.08l-0.44,1.25h-0.97l2.03-5.38h0.84l2.03,5.38h-0.98L132.14,48.84z M130.32,48.09h1.56
			l-0.78-2.23L130.32,48.09z"/>
		<path class="st1" d="M136.1,47.53l1.08-2.81h1.04l-1.87,4.46l-0.17,0.34c-0.25,0.44-0.64,0.66-1.2,0.66l-0.38-0.02l0.01-0.74
			c0.06,0.01,0.16,0.01,0.31,0.01c0.27,0,0.45-0.11,0.56-0.34l0.19-0.45l-1.84-3.91h1.02L136.1,47.53z"/>
		<path class="st1" d="M140.52,47.79h-0.64v2.3h-0.93v-5.38h0.93v2.26h0.51l1.58-2.26h1.14l-1.85,2.57l2.01,2.8h-1.12L140.52,47.79z
			"/>
		<path class="st1" d="M146.81,48.84h-2.08l-0.44,1.25h-0.97l2.03-5.38h0.84l2.03,5.38h-0.98L146.81,48.84z M144.99,48.09h1.56
			l-0.78-2.23L144.99,48.09z"/>
		<path class="st1" d="M85.21,53.79h0.93v5.38h-0.93v-3.83l-2.36,3.83h-0.93v-5.38h0.93v3.83L85.21,53.79z"/>
		<path class="st1" d="M91.08,56.6l1.08-2.81h1.04l-1.87,4.46l-0.17,0.34c-0.25,0.44-0.64,0.66-1.2,0.66l-0.38-0.02l0.01-0.74
			c0.06,0.01,0.16,0.01,0.31,0.01c0.27,0,0.45-0.11,0.56-0.34l0.19-0.45l-1.84-3.91h1.02L91.08,56.6z"/>
		<path class="st1" d="M98.18,59.17h-0.93v-2.39h-2.4v2.39h-0.93v-5.38h0.93v2.24h2.4v-2.24h0.93V59.17z"/>
		<path class="st1" d="M102.58,53.79h0.93v5.38h-0.93v-3.83l-2.36,3.83h-0.93v-5.38h0.93v3.83L102.58,53.79z"/>
		<path class="st1" d="M104.63,59.17v-5.38h1.84c0.61,0,1.07,0.12,1.39,0.37c0.32,0.24,0.48,0.61,0.48,1.09
			c0,0.25-0.07,0.47-0.2,0.66c-0.13,0.2-0.33,0.35-0.58,0.46c0.29,0.08,0.52,0.23,0.67,0.45c0.16,0.22,0.24,0.48,0.24,0.78
			c0,0.5-0.16,0.89-0.49,1.16c-0.32,0.27-0.79,0.41-1.39,0.41H104.63z M105.56,56.05h0.92c0.29,0,0.52-0.07,0.68-0.2
			c0.16-0.13,0.25-0.32,0.25-0.56c0-0.27-0.08-0.46-0.23-0.58s-0.39-0.18-0.71-0.18h-0.91V56.05z M105.56,56.74v1.68h1.04
			c0.29,0,0.52-0.07,0.69-0.22c0.17-0.15,0.25-0.35,0.25-0.61c0-0.56-0.29-0.84-0.86-0.86H105.56z"/>
		<path class="st1" d="M112.54,56.77h-2.21v1.65h2.58v0.75h-3.52v-5.38h3.49v0.75h-2.56v1.48h2.21V56.77z"/>
		<path class="st1" d="M114.61,57.17v1.99h-0.93v-5.38h2.06c0.6,0,1.08,0.16,1.43,0.47c0.35,0.31,0.53,0.73,0.53,1.24
			c0,0.53-0.17,0.94-0.52,1.23c-0.35,0.29-0.83,0.44-1.45,0.44H114.61z M114.61,56.42h1.12c0.33,0,0.59-0.08,0.76-0.23
			s0.26-0.38,0.26-0.68c0-0.29-0.09-0.52-0.27-0.7c-0.18-0.17-0.42-0.26-0.73-0.27h-1.15V56.42z"/>
		<path class="st1" d="M122.61,57.42c-0.05,0.57-0.27,1.02-0.64,1.34c-0.37,0.32-0.86,0.48-1.47,0.48c-0.43,0-0.81-0.1-1.13-0.3
			c-0.33-0.2-0.58-0.49-0.76-0.87c-0.18-0.37-0.27-0.81-0.28-1.3v-0.5c0-0.51,0.09-0.95,0.27-1.34s0.44-0.68,0.77-0.89
			c0.34-0.21,0.72-0.31,1.17-0.31c0.59,0,1.07,0.16,1.43,0.48s0.57,0.78,0.63,1.36h-0.93c-0.04-0.39-0.16-0.67-0.34-0.84
			c-0.18-0.17-0.45-0.26-0.8-0.26c-0.41,0-0.72,0.15-0.94,0.45s-0.33,0.73-0.33,1.31v0.48c0,0.58,0.1,1.02,0.31,1.33
			c0.21,0.31,0.51,0.46,0.91,0.46c0.37,0,0.64-0.08,0.83-0.25s0.3-0.44,0.35-0.82H122.61z"/>
		<path class="st1" d="M126.74,53.79h0.93v5.38h-0.93v-3.83l-2.36,3.83h-0.93v-5.38h0.93v3.83L126.74,53.79z"/>
		<path class="st1" d="M132.67,54.54H131v4.62h-0.93v-4.62h-1.66v-0.75h4.26V54.54z"/>
		<path class="st1" d="M136.52,56.77h-2.21v1.65h2.58v0.75h-3.52v-5.38h3.49v0.75h-2.56v1.48h2.21V56.77z"/>
		<path class="st1" d="M141.54,54.54h-1.68v4.62h-0.93v-4.62h-1.66v-0.75h4.26V54.54z"/>
		<path class="st1" d="M143.2,55.85h1.1c0.39,0,0.74,0.07,1.03,0.2s0.52,0.33,0.67,0.58c0.15,0.25,0.23,0.54,0.23,0.86
			c0,0.5-0.17,0.91-0.51,1.21s-0.81,0.46-1.39,0.47h-2.06v-5.38h0.93V55.85z M143.2,56.6v1.82h1.1c0.31,0,0.56-0.09,0.74-0.26
			c0.18-0.17,0.26-0.4,0.26-0.68c0-0.27-0.09-0.48-0.26-0.64c-0.17-0.16-0.41-0.24-0.72-0.24H143.2z M147.69,59.17h-0.93v-5.38h0.93
			V59.17z"/>
	</g>
</g>
</svg>
