<?xml version="1.0" standalone="no"?>
<!DOCTYPE svg PUBLIC "-//W3C//DTD SVG 20010904//EN"
 "http://www.w3.org/TR/2001/REC-SVG-20010904/DTD/svg10.dtd">
<svg version="1.0" xmlns="http://www.w3.org/2000/svg"
 width="280.000000pt" height="280.000000pt" viewBox="0 0 280.000000 280.000000"
 preserveAspectRatio="xMidYMid meet">
<metadata>
Created by potrace 1.14, written by Peter Selinger 2001-2017
</metadata>
<g transform="translate(0.000000,280.000000) scale(0.100000,-0.100000)"
fill="#000000" stroke="none">
<path d="M733 2534 c-37 -19 -63 -67 -63 -119 0 -30 8 -45 40 -77 39 -39 42
-40 95 -36 l55 5 0 -50 c0 -43 2 -48 15 -37 9 7 17 11 19 9 3 -4 300 -517 407
-703 54 -94 56 -101 42 -123 l-15 -23 -471 0 c-366 0 -468 3 -459 12 26 26 10
27 -36 4 l-49 -25 -17 40 c-39 87 -140 104 -203 35 -58 -63 -40 -151 37 -191
62 -32 132 -5 162 62 l19 43 49 -25 c48 -24 64 -23 38 3 -9 9 93 12 460 12
l472 0 11 -24 c13 -28 30 5 -178 -356 -284 -492 -273 -474 -289 -453 -12 16
-13 11 -14 -40 l0 -58 -35 7 c-19 3 -46 3 -59 0 -29 -7 -86 -53 -86 -69 0 -6
7 -1 16 11 19 28 65 52 99 52 58 0 115 -55 115 -110 0 -35 -31 -90 -59 -105
-14 -8 -21 -14 -16 -15 21 0 57 33 71 66 20 48 17 76 -12 120 -29 42 -30 40
37 86 19 14 21 17 7 17 -10 1 -18 4 -18 9 0 4 103 185 229 402 211 364 232
395 258 398 27 3 33 -5 122 -160 112 -194 170 -294 285 -490 47 -80 86 -149
86 -152 0 -3 -8 -6 -17 -6 -16 -1 -16 -3 3 -18 11 -9 31 -24 44 -33 l24 -16
-27 -32 c-31 -37 -35 -86 -12 -131 15 -29 51 -60 70 -60 5 1 -2 7 -17 16 -35
18 -58 62 -58 110 0 28 8 44 34 70 19 19 30 34 25 34 -5 0 -9 18 -9 39 0 22
-3 47 -6 55 -6 15 -8 15 -18 2 -9 -12 -43 40 -176 271 -324 561 -299 514 -287
540 l10 23 470 0 c413 0 468 -2 463 -15 -7 -19 -3 -19 44 5 49 25 50 25 50 -1
0 -12 17 -39 39 -60 33 -33 45 -39 81 -39 101 0 162 100 115 190 -29 56 -117
78 -175 44 -29 -18 -60 -62 -60 -88 0 -20 -3 -20 -50 4 -47 24 -57 25 -40 5
11 -13 -41 -15 -462 -15 l-475 0 -11 24 c-10 22 12 64 221 425 128 220 235
401 240 401 4 0 7 -8 7 -17 0 -15 2 -16 10 -3 5 8 10 34 10 58 l0 43 34 -7
c64 -12 146 36 146 85 0 9 -8 2 -16 -16 -16 -33 -66 -63 -104 -63 -29 0 -76
26 -94 52 -9 12 -16 18 -16 12 0 -6 9 -19 20 -29 11 -10 20 -21 20 -25 0 -4
-19 -20 -42 -36 -33 -22 -39 -29 -25 -32 10 -2 17 -7 15 -11 -2 -4 -106 -186
-233 -404 -213 -367 -232 -397 -257 -397 -30 0 -26 -5 -193 285 -54 94 -120
208 -148 255 -88 152 -147 258 -147 263 0 3 8 7 17 9 12 2 4 11 -25 31 -38 25
-54 47 -34 47 16 0 42 59 42 95 0 97 -97 153 -187 109z m131 -23 c68 -59 47
-163 -40 -191 -60 -20 -130 26 -140 91 -14 92 110 161 180 100z m-611 -1061
c54 -47 56 -113 5 -167 -64 -69 -188 -17 -188 79 0 50 13 74 53 98 47 29 90
26 130 -10z m2420 16 c43 -18 67 -46 73 -87 7 -45 -28 -98 -78 -117 -33 -13
-41 -12 -75 4 -52 26 -79 80 -64 127 17 49 51 78 104 86 4 0 22 -5 40 -13z"/>
<path d="M745 2475 c-48 -48 -16 -125 51 -125 67 0 100 88 48 129 -35 28 -69
26 -99 -4z"/>
<path d="M130 1420 c-30 -30 -27 -83 6 -109 35 -28 69 -26 99 4 32 31 32 69 0
100 -30 31 -77 33 -105 5z"/>
<path d="M2582 1417 c-45 -48 -11 -127 55 -127 33 0 73 42 73 78 0 63 -84 95
-128 49z"/>
<path d="M1975 2540 c-40 -16 -67 -57 -71 -107 l-3 -48 9 49 c11 62 42 94 100
105 35 7 38 9 15 9 -16 1 -39 -3 -50 -8z"/>
<path d="M2090 2513 c18 -14 36 -36 40 -47 8 -18 9 -19 9 -3 1 20 -50 77 -69
77 -6 0 3 -12 20 -27z"/>
<path d="M1978 2486 c-41 -31 -37 -113 7 -130 52 -20 115 18 115 69 0 56 -78
95 -122 61z"/>
<path d="M2003 423 c9 -2 25 -2 35 0 9 3 1 5 -18 5 -19 0 -27 -2 -17 -5z"/>
<path d="M2083 404 c16 -9 35 -30 42 -47 9 -20 14 -25 15 -14 0 21 -52 77 -72
77 -7 -1 0 -8 15 -16z"/>
<path d="M742 357 c-29 -31 -28 -72 3 -102 30 -30 64 -32 99 -4 33 26 36 79 6
109 -28 28 -81 26 -108 -3z"/>
<path d="M1971 362 c-33 -26 -31 -79 3 -109 35 -30 71 -29 101 2 30 30 32 64
4 99 -25 31 -75 35 -108 8z"/>
<path d="M672 310 c0 -19 2 -27 5 -17 2 9 2 25 0 35 -3 9 -5 1 -5 -18z"/>
<path d="M680 262 c0 -20 56 -72 77 -72 12 0 8 5 -12 15 -17 9 -38 28 -48 43
-9 15 -17 21 -17 14z"/>
<path d="M2100 225 c-13 -14 -30 -25 -38 -25 -9 0 -12 -3 -9 -7 10 -9 57 18
68 39 13 25 7 23 -21 -7z"/>
</g>
</svg>
